<svg width="100" height="100" viewBox="0 0 100 100" fill="none" xmlns="http://www.w3.org/2000/svg">
<g clip-path="url(#clip0_5_2)">
<path d="M77.6518 33.895H73.7416V30.1361C73.7416 24.8866 71.6462 20.0043 67.8224 16.3534C64.1931 12.897 59.4189 10.9527 54.299 10.7799L54.9471 4.75265V4.57983C54.9471 3.93174 55.8112 3.24044 56.6537 3.24044H70.1988V0H56.6537C54.0614 0 51.7715 2.07388 51.7066 4.47181L51.037 10.7367H46.1331C34.986 10.7367 26.2584 19.2482 26.2584 30.0929V33.8518H22.3482C21.4625 33.8518 20.728 34.5863 20.728 35.472V44.6101C20.728 45.4958 21.4625 46.2303 22.3482 46.2303H26.4096L30.9678 92.3526C30.9678 92.3742 30.9678 92.4174 30.9894 92.439C31.6591 96.6732 35.3964 100 39.501 100H60.2398C64.6684 100 68.4057 96.6299 68.773 92.3526L73.5904 46.2303H77.6518C78.5375 46.2303 79.272 45.4958 79.272 44.6101V35.472C79.272 34.6295 78.5375 33.895 77.6518 33.895ZM53.9317 14.0203C63.2426 14.1931 70.5012 21.2141 70.5012 30.1361V33.895H51.7931L53.9317 14.0203ZM29.4988 30.1361C29.4988 21.0845 36.8006 14.0203 46.1331 14.0203H50.6913L48.5526 33.895H29.4988V30.1361ZM65.5325 92.0717C65.5325 92.0933 65.5325 92.0933 65.5325 92.1149C65.3165 94.7505 63.005 96.8028 60.2398 96.8028H39.501C36.9734 96.8028 34.6403 94.7073 34.1867 92.0285L29.6716 46.2735H70.3284L65.5325 92.0717ZM76.0316 43.0331H23.9685V37.1355H27.8786H72.1214H76.0316V43.0331Z" fill="black"/>
<path d="M37.3407 89.2633C37.3623 89.2849 37.3623 89.3065 37.3623 89.3281C37.7944 91.4884 39.6306 93.0439 41.7045 93.0439H46.6732C47.5805 93.0439 48.2934 92.331 48.2934 91.4236C48.2934 90.5379 47.5589 89.8034 46.6732 89.8034H41.7045C41.0996 89.8034 40.6676 89.2633 40.5379 88.7017L39.1554 80.4061C39.0041 79.5204 38.1832 78.9155 37.2975 79.0668C36.4118 79.218 35.8069 80.0389 35.9581 80.9246L37.3407 89.2633Z" fill="black"/>
</g>
<defs>
<clipPath id="clip0_5_2">
<rect width="100" height="100" fill="white"/>
</clipPath>
</defs>
</svg>
