<svg width="50" height="50" viewBox="0 0 50 50" fill="none" xmlns="http://www.w3.org/2000/svg">
<path d="M46.0938 44.1406C46.0938 45.2193 45.2193 46.0938 44.1406 46.0938H42.1875V48.0469C42.1875 49.1256 41.3131 50 40.2344 50C39.1557 50 38.2812 49.1256 38.2812 48.0469V46.0938H36.3281C35.2494 46.0938 34.375 45.2193 34.375 44.1406C34.375 43.0619 35.2494 42.1875 36.3281 42.1875H38.2812V40.2344C38.2812 39.1557 39.1557 38.2812 40.2344 38.2812C41.3131 38.2812 42.1875 39.1557 42.1875 40.2344V42.1875H44.1406C45.2193 42.1875 46.0938 43.0619 46.0938 44.1406ZM46.0938 13.6719V32.4219C46.0938 33.5006 45.2193 34.375 44.1406 34.375C43.0619 34.375 42.1875 33.5006 42.1875 32.4219V15.625H38.2812V21.4844C38.2812 22.5631 37.4068 23.4375 36.3281 23.4375C35.2494 23.4375 34.375 22.5631 34.375 21.4844V15.625H15.625V21.4844C15.625 22.5631 14.7506 23.4375 13.6719 23.4375C12.5932 23.4375 11.7188 22.5631 11.7188 21.4844V15.625H7.8125V46.0938H28.5156C29.5943 46.0938 30.4688 46.9682 30.4688 48.0469C30.4688 49.1256 29.5943 50 28.5156 50H5.85938C4.78066 50 3.90625 49.1256 3.90625 48.0469V13.6719C3.90625 12.5932 4.78066 11.7188 5.85938 11.7188H11.8111C12.587 5.1292 18.2054 0 25 0C31.7946 0 37.413 5.1292 38.1889 11.7188H44.1406C45.2193 11.7188 46.0938 12.5932 46.0938 13.6719ZM34.244 11.7188C33.4979 7.29053 29.637 3.90625 25 3.90625C20.363 3.90625 16.5021 7.29053 15.756 11.7188H34.244Z" fill="#2B463C"/>
</svg>
