<svg width="100" height="100" viewBox="0 0 100 100" fill="none" xmlns="http://www.w3.org/2000/svg">
<path d="M9.76562 43.3118C9.40309 43.312 9.05546 43.4561 8.79911 43.7124C8.54275 43.9688 8.39864 44.3164 8.39844 44.679V50.7337C8.39844 51.0963 8.54248 51.444 8.79888 51.7004C9.05527 51.9568 9.40302 52.1008 9.76562 52.1008C10.1282 52.1008 10.476 51.9568 10.7324 51.7004C10.9888 51.444 11.1328 51.0963 11.1328 50.7337V44.679C11.1326 44.3164 10.9885 43.9688 10.7321 43.7124C10.4758 43.4561 10.1282 43.312 9.76562 43.3118Z" fill="black"/>
<path d="M26.9243 48.5156C24.3361 48.5156 21.8061 49.2831 19.6541 50.721C17.5021 52.1589 15.8249 54.2027 14.8344 56.5938C13.844 58.9849 13.5848 61.6161 14.0898 64.1545C14.5947 66.6929 15.841 69.0246 17.6711 70.8547C19.5012 72.6848 21.8329 73.9311 24.3713 74.4361C26.9097 74.941 29.5409 74.6818 31.932 73.6914C34.3232 72.701 36.3669 71.0237 37.8048 68.8717C39.2427 66.7197 40.0102 64.1897 40.0102 61.6016C40.0063 58.1322 38.6263 54.806 36.1731 52.3527C33.7198 49.8995 30.3937 48.5196 26.9243 48.5156ZM26.9243 71.9531C24.8769 71.9531 22.8755 71.346 21.1732 70.2086C19.4709 69.0711 18.1441 67.4544 17.3607 65.5629C16.5772 63.6714 16.3722 61.5901 16.7716 59.5821C17.171 57.5741 18.1569 55.7296 19.6046 54.2819C21.0523 52.8342 22.8968 51.8483 24.9048 51.4489C26.9128 51.0495 28.9941 51.2545 30.8856 52.038C32.7771 52.8215 34.3938 54.1482 35.5313 55.8505C36.6687 57.5528 37.2758 59.5542 37.2758 61.6016C37.2727 64.346 36.1811 66.9772 34.2405 68.9178C32.2999 70.8584 29.6687 71.95 26.9243 71.9531Z" fill="black"/>
<path d="M90.2344 69.3359H71.9219L72.0672 67.9234V67.9055L73.9422 49.7023C73.9418 49.6979 73.9418 49.6935 73.9422 49.6891L75.4688 34.9055C75.4882 34.7152 75.4675 34.523 75.4081 34.3412C75.3486 34.1594 75.2517 33.9922 75.1236 33.8501C74.9956 33.7081 74.8391 33.5946 74.6644 33.5168C74.4897 33.439 74.3006 33.3986 74.1094 33.3984H49.2609C48.5715 31.7916 47.499 30.3782 46.1371 29.2817C44.7751 28.1853 43.1654 27.4391 41.4484 27.1086V20.1172C41.4483 19.9374 41.4128 19.7594 41.3439 19.5934C41.2749 19.4273 41.1739 19.2765 41.0467 19.1496C40.9194 19.0226 40.7684 18.9219 40.6022 18.8534C40.436 18.7848 40.2579 18.7497 40.0781 18.75H30.6328V12.9398H38.382C38.7446 12.9398 39.0924 12.7958 39.3488 12.5394C39.6052 12.283 39.7492 11.9353 39.7492 11.5726C39.752 9.94734 39.1522 8.37869 38.0658 7.1698C36.9795 5.96092 35.4836 5.1976 33.8672 5.02734L21.6203 3.71874C21.4296 3.69836 21.2367 3.71833 21.0543 3.77735C20.8718 3.83637 20.7037 3.93313 20.5611 4.06134C20.4184 4.18954 20.3044 4.34633 20.2263 4.5215C20.1482 4.69668 20.1078 4.88632 20.1078 5.07812V11.5726C20.108 11.9352 20.2521 12.2828 20.5085 12.5392C20.7648 12.7955 21.1125 12.9396 21.475 12.9398H23.2109V18.75H13.7734C13.4109 18.7502 13.0633 18.8943 12.8069 19.1507C12.5506 19.407 12.4065 19.7546 12.4062 20.1172V27.1094C9.96048 27.587 7.7564 28.8989 6.17049 30.8211C4.58458 32.7433 3.71523 35.1565 3.71094 37.6484V90.2344C3.7128 91.8396 4.3513 93.3786 5.48637 94.5136C6.62144 95.6487 8.16039 96.2872 9.76562 96.2891H44.0859C45.2861 96.2903 46.4592 95.9328 47.4547 95.2625C47.5294 95.5557 47.6996 95.8157 47.9383 96.0015C48.1771 96.1874 48.4709 96.2886 48.7734 96.2891H94.9219C95.2844 96.2889 95.632 96.1448 95.8884 95.8884C96.1447 95.632 96.2889 95.2844 96.2891 94.9219V75.3906C96.2872 73.7854 95.6487 72.2464 94.5136 71.1114C93.3786 69.9763 91.8396 69.3378 90.2344 69.3359ZM93.5547 75.3906V75.5859H65.8203V75.3906C65.8213 74.5103 66.1715 73.6664 66.7939 73.044C67.4164 72.4215 68.2603 72.0714 69.1406 72.0703H90.2344C91.1147 72.0714 91.9586 72.4215 92.5811 73.044C93.2035 73.6664 93.5536 74.5103 93.5547 75.3906ZM69.1406 69.3359C67.5354 69.3378 65.9964 69.9763 64.8614 71.1114C63.7263 72.2464 63.0878 73.7854 63.0859 75.3906V83.3438H50.007L48.5398 69.1328H69.1937L69.1727 69.3359H69.1406ZM46.6633 50.9297H71.0695L69.4758 66.3984H48.2578L48.0187 64.0844L46.6633 50.9297ZM71.3508 48.1953H46.3781L45.1336 36.1328H72.5938L71.3508 48.1953ZM22.8422 6.59921L33.5766 7.74609C34.2837 7.82076 34.9563 8.09019 35.5195 8.52439C36.0827 8.95859 36.5143 9.54053 36.7664 10.2055H29.2844H29.2656H29.2469H24.5969H24.5781H24.5594H22.8406L22.8422 6.59921ZM25.9453 12.9398H27.8984V18.75H25.9453V12.9398ZM38.7109 21.4844V26.9062H15.1406V21.4844H38.7109ZM44.0859 93.5547H9.76562C8.88534 93.5537 8.04141 93.2035 7.41895 92.5811C6.7965 91.9586 6.44635 91.1147 6.44531 90.2344V37.6484C6.44759 35.5253 7.292 33.4898 8.79326 31.9886C10.2945 30.4873 12.33 29.6429 14.4531 29.6406H39.3984C40.756 29.6382 42.0917 29.9821 43.2793 30.6396C44.467 31.2971 45.4674 32.2467 46.1859 33.3984H43.6172C43.4258 33.3984 43.2365 33.4386 43.0616 33.5163C42.8866 33.5941 42.73 33.7077 42.6018 33.8499C42.4736 33.992 42.3766 34.1595 42.3172 34.3414C42.2579 34.5234 42.2373 34.7158 42.257 34.9062L45.3578 64.9398L45.6633 67.9086V67.9164L47.4062 84.7812V90.2344C47.4052 91.1147 47.0551 91.9586 46.4326 92.5811C45.8102 93.2035 44.9662 93.5537 44.0859 93.5547ZM50.1406 90.2344V86.0781H63.0859V93.5547H50.1406V90.2344ZM93.5547 93.5547H65.8203V78.3203H93.5547V93.5547Z" fill="black"/>
<path d="M79.6875 80.1429C77.0312 80.1429 74.8695 82.7429 74.8695 85.9375C74.8695 89.132 77.0312 91.732 79.6875 91.732C82.3437 91.732 84.5054 89.132 84.5054 85.9375C84.5054 82.7429 82.3437 80.1429 79.6875 80.1429ZM79.6875 88.9976C78.5586 88.9976 77.6039 87.5961 77.6039 85.9375C77.6039 84.2789 78.5586 82.8773 79.6875 82.8773C80.8164 82.8773 81.7711 84.2789 81.7711 85.9375C81.7711 87.5961 80.8164 88.9976 79.6875 88.9976Z" fill="black"/>
</svg>
