<svg width="100" height="100" viewBox="0 0 100 100" fill="none" xmlns="http://www.w3.org/2000/svg">
<path d="M91.4975 24.5485C86.9375 20.9143 80.5014 17.9389 72.3678 15.7053C56.725 11.4096 39.085 10.9459 32.2268 10.9459C14.4568 10.9459 0 25.403 0 43.1729V56.8272C0 74.5973 14.4568 89.0541 32.2268 89.0541C40.4207 89.0541 46.5744 86.4873 53.0895 83.7697C59.827 80.9594 66.7935 78.0535 76.5916 78.0535C89.499 78.0535 100 67.5524 100 54.6451V40.9908C100 34.577 97.1393 29.0449 91.4975 24.5485ZM89.8527 57.9379C90.5922 58.7237 91.8283 58.7606 92.6137 58.0213C93.9383 56.774 95.1035 55.3844 96.0938 53.8881V54.6451C96.0938 65.3988 87.3451 74.1473 76.5916 74.1473C66.0115 74.1473 58.6779 77.2063 51.5857 80.1645C45.4418 82.7272 39.6387 85.1479 32.2268 85.1479C17.2229 85.1479 4.90859 73.4188 3.96641 58.6483C9.45078 68.6235 20.0619 75.3994 32.2268 75.3994C40.4207 75.3994 46.5744 72.8326 53.0895 70.1151C59.827 67.3047 66.7935 64.3988 76.5916 64.3988C77.3195 64.3988 78.0549 64.3645 78.7775 64.2969C79.8516 64.1963 80.6406 63.2442 80.54 62.1701C80.4395 61.0963 79.4861 60.3074 78.4133 60.4078C77.8111 60.4641 77.1984 60.4928 76.5916 60.4928C66.0115 60.4928 58.6779 63.5518 51.5857 66.51C45.4418 69.0727 39.6387 71.4934 32.2268 71.4934C16.6107 71.4934 3.90625 58.7889 3.90625 43.1731C3.90625 27.5571 16.6107 14.8524 32.2268 14.8524C38.9266 14.8524 56.1488 15.3026 71.3334 19.4723C87.7631 23.9842 96.0938 31.224 96.0938 40.9908C96.0938 46.3219 93.8492 51.4926 89.9359 55.177C89.1506 55.9164 89.1133 57.1526 89.8527 57.9379Z" fill="black"/>
<path d="M88.2467 59.1846C87.7873 58.2086 86.6234 57.7896 85.6478 58.249C85.6338 58.2555 85.6152 58.2646 85.6013 58.2715C84.6367 58.7539 84.2457 59.9271 84.7279 60.8918C85.0701 61.5762 85.7599 61.9719 86.4765 61.9719C86.766 61.9719 87.0597 61.9072 87.3367 61.7711C88.2943 61.3037 88.7019 60.152 88.2467 59.1846Z" fill="black"/>
<path d="M46.3258 19.3089L46.2252 19.3007C45.1482 19.2167 44.2086 20.0171 44.1229 21.0925C44.0371 22.1677 44.8393 23.1089 45.9145 23.1949L46.0143 23.2027C46.0672 23.207 46.1197 23.2091 46.1721 23.2091C47.1801 23.2091 48.035 22.4337 48.117 21.4117C48.2029 20.3363 47.401 19.3951 46.3258 19.3089Z" fill="black"/>
<path d="M90.9679 35.7291C89.0306 31.9002 84.7201 28.5912 78.1556 25.8943C72.8441 23.7121 67.0353 22.3336 63.0976 21.5611C60.7377 21.0984 58.2646 20.6851 55.747 20.3332C54.6793 20.1824 53.6918 20.9285 53.5422 21.997C53.3927 23.0654 54.1377 24.0523 55.206 24.2017C57.6533 24.5439 60.0554 24.9453 62.3459 25.3945C75.7619 28.0256 84.9238 32.4351 87.4824 37.4922C88.0199 38.5549 88.2812 39.6992 88.2812 40.9906C88.2812 47.4361 83.0373 52.6801 76.5916 52.6801C70.0744 52.6801 63.7457 53.7451 57.2437 55.9363C54.4433 56.8803 51.7242 58.0086 49.0947 59.1C47.3554 59.8217 45.557 60.5681 43.7718 61.2445C39.267 62.9519 35.814 63.6805 32.2267 63.6805C20.9185 63.6805 11.7185 54.4806 11.7185 43.1726C11.7185 31.8644 20.9185 22.6644 32.2267 22.6644C34.4328 22.6644 36.6724 22.7062 38.883 22.7886C39.2582 22.8025 39.6338 22.8176 40.0095 22.8342C41.0863 22.883 41.9994 22.0467 42.0468 20.9689C42.0945 19.8914 41.2593 18.9791 40.1818 18.9316C39.797 18.9146 39.4123 18.8992 39.0283 18.8849C36.7695 18.8008 34.481 18.7582 32.2265 18.7582C18.7644 18.7582 7.81207 29.7103 7.81207 43.1726C7.81207 56.6346 18.7642 67.5867 32.2265 67.5867C36.3154 67.5867 40.1822 66.7824 45.156 64.8972C46.998 64.1992 48.825 63.441 50.592 62.7076C53.1609 61.6416 55.8173 60.539 58.4912 59.6379C64.5845 57.5844 70.5052 56.5861 76.5916 56.5861C85.1912 56.5865 92.1875 49.5902 92.1875 40.9908C92.1875 39.0724 91.7884 37.3513 90.9679 35.7291Z" fill="black"/>
<path d="M34.0973 26.5273C28.6371 26.5273 24.1948 30.5557 24.1948 35.5072C24.1948 40.4588 28.6371 44.4871 34.0973 44.4871C39.5577 44.4871 43.9998 40.4588 43.9998 35.5072C43.9998 30.5557 39.5577 26.5273 34.0973 26.5273ZM34.0973 40.5807C30.7909 40.5807 28.101 38.3047 28.101 35.507C28.101 32.7096 30.7909 30.4334 34.0973 30.4334C37.4037 30.4334 40.0936 32.7094 40.0936 35.507C40.0936 38.3047 37.4037 40.5807 34.0973 40.5807Z" fill="black"/>
</svg>
