<svg width="100" height="100" viewBox="0 0 100 100" fill="none" xmlns="http://www.w3.org/2000/svg">
<path d="M17.1875 89.0625V51.5625C17.1817 46.6186 18.1862 41.7257 20.1392 37.184L23.3574 29.6736C23.6322 29.0346 23.8924 28.3773 24.1369 27.7117C27.9806 27.0234 31.9226 27.103 35.7353 27.9461C38.0501 28.4624 40.4145 28.7234 42.7861 28.7244C44.5197 28.7239 46.2505 28.5844 47.9619 28.3072C48.1377 28.7645 48.323 29.2209 48.5166 29.673L51.7355 37.185L54.608 35.9545L51.3892 28.4432C51.0468 27.6424 50.7318 26.8291 50.4517 26.0229C49.2889 22.6718 48.6216 19.1689 48.4711 15.625H50C50.4144 15.625 50.8118 15.4604 51.1048 15.1674C51.3978 14.8743 51.5625 14.4769 51.5625 14.0625V7.8125C51.561 6.56974 51.0667 5.3783 50.1879 4.49954C49.3092 3.62077 48.1177 3.12645 46.875 3.125H25C23.7572 3.12645 22.5658 3.62077 21.687 4.49954C20.8082 5.3783 20.3139 6.56974 20.3125 7.8125V14.0625C20.3125 14.4769 20.4771 14.8743 20.7701 15.1674C21.0631 15.4604 21.4606 15.625 21.875 15.625H23.4037C23.2559 19.1041 22.6102 22.544 21.4863 25.8398C21.1842 26.7236 20.8478 27.5977 20.4857 28.4404L17.267 35.9521C15.1467 40.883 14.0563 46.1951 14.0625 51.5625V89.0625C14.0648 91.1338 14.8887 93.1196 16.3533 94.5842C17.8179 96.0488 19.8037 96.8727 21.875 96.875H46.875V93.75H21.875C20.6322 93.7486 19.4408 93.2542 18.562 92.3755C17.6833 91.4967 17.1889 90.3053 17.1875 89.0625ZM23.4375 7.8125C23.4379 7.39824 23.6027 7.00108 23.8956 6.70816C24.1886 6.41523 24.5857 6.25047 25 6.25H46.875C47.2892 6.25047 47.6864 6.41523 47.9793 6.70816C48.2722 7.00108 48.437 7.39824 48.4375 7.8125V12.5H23.4375V7.8125ZM45.3431 15.625C45.472 18.9035 46.0088 22.1531 46.9412 25.2988C43.4366 25.8032 39.8695 25.6662 36.4138 24.8945C32.7307 24.0803 28.9345 23.9095 25.1931 24.3896C25.9666 21.5275 26.4158 18.5875 26.532 15.625H45.3431Z" fill="black"/>
<path d="M26.0223 31.3891L24.3368 35.3221L27.2094 36.5531L28.8949 32.6202L26.0223 31.3891Z" fill="black"/>
<path d="M20.3125 51.5625V57.8125H23.4375V51.5625C23.4328 47.4654 24.2651 43.4106 25.8834 39.6467L23.0123 38.4162C21.2264 42.5687 20.3077 47.0422 20.3125 51.5625Z" fill="black"/>
<path d="M85.9375 46.875C85.9375 41.7459 75.7191 39.0625 65.625 39.0625C55.5309 39.0625 45.3125 41.7459 45.3125 46.875C45.3129 47.0635 45.3275 47.2516 45.3562 47.4379L50.0078 95.4687C50.0465 95.8542 50.2271 96.2114 50.5143 96.4713C50.8016 96.7311 51.1751 96.875 51.5625 96.875H79.6875C80.0749 96.875 80.4484 96.7311 80.7357 96.4713C81.0229 96.2114 81.2034 95.8542 81.2422 95.4687L85.8937 47.4383C85.9225 47.2519 85.9371 47.0636 85.9375 46.875ZM81.6783 59.668L80.8887 59.9314C76.0246 61.5615 70.7744 61.6412 65.8631 60.1594C60.6119 58.5819 55.0129 58.5819 49.7617 60.1594L49.6201 60.2018L48.85 51.4773C52.7064 53.5969 59.1906 54.6875 65.625 54.6875C72.0594 54.6875 78.5441 53.5967 82.4006 51.4773L81.6783 59.668ZM65.625 42.1875C76.6756 42.1875 82.7324 45.2443 82.8088 46.8439L82.7912 47.0393C82.4023 48.6689 76.3756 51.5625 65.625 51.5625C54.8744 51.5625 48.8477 48.6689 48.4588 47.0391L48.4412 46.8437C48.5176 45.2443 54.5744 42.1875 65.625 42.1875ZM78.2738 93.75H52.9754L49.9162 63.376L50.66 63.1529C55.3262 61.7576 60.2988 61.7576 64.965 63.1529C70.3118 64.7665 76.0201 64.7364 81.3496 63.0664L78.2738 93.75Z" fill="black"/>
<path d="M56.4815 66.8601L53.3687 67.1348L53.6613 70.4502L56.774 70.1756L56.4815 66.8601Z" fill="black"/>
<path d="M57.0488 73.283L53.9391 73.5916L55.1794 86.0916L58.2892 85.783L57.0488 73.283Z" fill="black"/>
</svg>
