<svg width="100" height="100" viewBox="0 0 100 100" fill="none" xmlns="http://www.w3.org/2000/svg">
<g clip-path="url(#clip0_5_68)">
<path d="M26.6761 56.6717H23.3432C22.4225 56.6717 21.6764 57.4178 21.6764 58.3385C21.6764 59.2585 22.4225 60.0046 23.3432 60.0046H26.6761C27.5961 60.0046 28.3421 59.2585 28.3421 58.3385C28.3421 57.4178 27.5961 56.6717 26.6761 56.6717Z" fill="black"/>
<path d="M31.675 58.3385C31.675 59.2585 32.421 60.0046 33.3418 60.0046H91.6681C92.5881 60.0046 93.3341 59.2585 93.3341 58.3385C93.3341 57.4178 92.5881 56.6717 91.6681 56.6717H33.3418C32.421 56.6717 31.675 57.4178 31.675 58.3385Z" fill="black"/>
<path d="M1.67917 100.001H31.675C32.5957 100.001 33.3418 99.2544 33.3418 98.3337V96.1146C34.8591 98.5427 37.5252 100.013 40.3889 100.001H74.5033C78.0628 100.034 81.24 97.7745 82.3774 94.4012C84.1976 89.3756 87.1719 84.8481 91.0609 81.1811C98.7267 73.5153 99.9419 61.5165 99.9854 55.0362C99.993 53.705 99.4697 52.4257 98.5314 51.4813C97.5931 50.5377 96.3169 50.0067 94.9857 50.0067H90.3598L98.9136 32.5941C101.336 27.644 99.5567 21.6633 94.8209 18.8438C94.782 18.8171 94.7408 18.7904 94.6989 18.7652C89.8807 16.0022 83.7467 17.4356 80.6526 22.0485L61.9164 50.0067H59.9368C59.782 49.7169 59.6218 49.4369 59.4547 49.1737L59.2335 48.8137C57.8688 46.6121 57.7108 43.8697 58.8132 41.5262L58.8238 41.5041C61.0193 41.0059 62.7281 39.2812 63.2056 37.0804C63.6831 34.8795 62.8433 32.6009 61.0513 31.237C63.4818 29.3283 64.9319 26.4333 65.0044 23.3431C65.0044 18.869 61.8378 14.9457 56.9167 12.9882C59.2571 9.51345 58.6545 4.84103 55.5077 2.07496C52.3618 -0.690351 47.6512 -0.690351 44.5045 2.07496C41.3585 4.84103 40.7551 9.51345 43.0955 12.9882C38.1744 14.9495 35.0078 18.872 35.0078 23.3431C35.0788 26.4356 36.5289 29.3337 38.9609 31.2438C37.1713 32.6078 36.3321 34.8849 36.8097 37.0842C37.2865 39.2834 38.9929 41.0075 41.1876 41.5079L41.2006 41.5346C42.3029 43.8803 42.142 46.6258 40.7726 48.8266L40.5743 49.1485C40.4072 49.4102 40.276 49.7199 40.1242 50.0037H26.6074C26.4525 49.7131 26.2923 49.4331 26.126 49.1699L25.9041 48.8098C24.5393 46.609 24.3814 43.8666 25.4845 41.5224L25.4944 41.501C27.6906 41.0029 29.3994 39.2773 29.8769 37.0765C30.3545 34.8757 29.5146 32.5979 27.7227 31.2339C30.1523 29.326 31.6017 26.4318 31.675 23.3431C31.675 18.869 28.5092 14.9457 23.5881 12.9882C25.9285 9.51345 25.3251 4.84103 22.1791 2.07496C19.0324 -0.690351 14.3218 -0.690351 11.1758 2.07496C8.02909 4.84103 7.42568 9.51345 9.76608 12.9882C4.84498 14.9495 1.67917 18.872 1.67917 23.3431C1.74936 26.4356 3.19952 29.3337 5.63147 31.2438C3.84184 32.6078 3.00347 34.8849 3.48025 37.0842C3.95779 39.2834 5.66427 41.0075 7.85821 41.5079L7.87118 41.5346C8.97349 43.8803 8.81253 46.6258 7.44322 48.8266L7.23497 49.16C4.6085 53.3976 4.29497 58.6734 6.40194 63.1917L7.56833 65.658C7.17775 65.8724 6.81922 66.1401 6.5034 66.4544C5.54298 67.3851 5.00441 68.6674 5.01204 70.0039C5.01357 70.6409 5.13791 71.271 5.37821 71.8607C4.53984 72.0751 3.77471 72.5129 3.16519 73.127C1.37251 74.8785 1.17722 77.6957 2.71054 79.6783C1.01931 80.9256 0.0184624 82.9006 0.0123596 85.0022V98.3337C0.0123596 99.2544 0.758421 100.001 1.67917 100.001ZM3.34523 96.6676V85.0022C3.34523 83.1615 4.83735 81.6694 6.67809 81.6694H24.2929C26.48 83.8839 28.3986 86.3479 30.0089 89.0117V96.6676H3.34523ZM8.34491 70.0039C8.35711 69.0893 9.09631 68.3501 10.011 68.3379H16.7072C17.0223 69.4494 17.3907 70.5639 17.8217 71.6708H10.011C9.09097 71.6708 8.34491 70.9247 8.34491 70.0039ZM96.1673 53.8393C96.4801 54.1528 96.654 54.5792 96.6487 55.0224C96.609 60.9856 95.5258 72.0087 88.7014 78.8331C84.4417 82.867 81.1874 87.8453 79.2024 93.366C78.5121 95.3647 76.6179 96.6959 74.5033 96.6676H40.3889C38.2675 96.7012 36.3649 95.3662 35.6746 93.3599C35.0322 91.465 34.2053 89.6388 33.2068 87.9056V87.8949C31.2882 84.5682 28.928 81.5168 26.1894 78.8247C24.4447 77.0473 23.0045 74.9952 21.9266 72.7502C21.9083 72.7006 21.8831 72.6556 21.8595 72.6075C19.4115 67.0685 18.178 61.0695 18.242 55.0141C18.2398 54.5708 18.4144 54.1452 18.7272 53.8309C19.04 53.5166 19.4649 53.3396 19.9081 53.3396H94.9773C95.4251 53.3396 95.8538 53.5196 96.1673 53.8393ZM83.4217 23.8999C85.518 20.7761 89.6565 19.7783 92.9458 21.6038C92.9794 21.6267 93.016 21.6503 93.0527 21.6717C96.3428 23.5803 97.5961 27.7088 95.9225 31.1241L86.647 50.0067H65.9274L83.4217 23.8999ZM50.0061 3.34586C52.0734 3.32679 53.9355 4.59158 54.6793 6.52005C55.4238 8.44852 54.8944 10.6364 53.3512 12.0118C51.1382 11.6197 48.8741 11.6197 46.6618 12.0118C45.1163 10.6371 44.5853 8.44852 45.3299 6.51929C46.0744 4.59006 47.938 3.32526 50.0061 3.34586ZM46.5352 15.4011C48.8237 14.8808 51.2 14.8808 53.4893 15.4011C58.3066 16.4874 61.6715 19.7523 61.6715 23.3431C61.4526 26.2754 59.6233 28.8439 56.9236 30.0088H43.0925C40.3912 28.8447 38.5612 26.2762 38.3407 23.3431C38.3407 19.7523 41.7056 16.4874 46.5352 15.4011ZM42.5074 33.3424H57.5056C58.8856 33.3424 60.0047 34.4615 60.0047 35.8415C60.0047 37.2222 58.8856 38.3413 57.5056 38.3413H42.5074C41.1266 38.3413 40.0075 37.2222 40.0075 35.8415C40.0075 34.4615 41.1266 33.3424 42.5074 33.3424ZM44.7951 41.6742H55.2171C54.3986 44.4586 54.7129 47.4535 56.0921 50.0067H43.927C45.3039 47.4527 45.6167 44.4578 44.7951 41.6742ZM16.6775 3.34586C18.744 3.32679 20.6061 4.59158 21.3506 6.52005C22.0944 8.44852 21.565 10.6364 20.0218 12.0118C17.8095 11.6197 15.5454 11.6197 13.3324 12.0118C11.7869 10.6371 11.2559 8.44852 12.0012 6.51929C12.7458 4.59006 14.6094 3.32526 16.6775 3.34586ZM13.2057 15.4011C15.495 14.8808 17.8713 14.8808 20.1598 15.4011C24.978 16.4874 28.3421 19.7523 28.3421 23.3431C28.1232 26.2754 26.2939 28.8439 23.5949 30.0088H9.76303C7.0618 28.8447 5.23174 26.2762 5.01204 23.3431C5.01204 19.7523 8.37618 16.4874 13.2057 15.4011ZM9.17793 33.3424H24.1762C25.557 33.3424 26.6761 34.4615 26.6761 35.8415C26.6761 37.2222 25.557 38.3413 24.1762 38.3413H9.17793C7.79718 38.3413 6.67809 37.2222 6.67809 35.8415C6.67809 34.4615 7.79718 33.3424 9.17793 33.3424ZM10.0628 50.9328L10.2726 50.6002C11.9265 47.931 12.3605 44.6836 11.4657 41.6742H21.8884C21.0691 44.4586 21.3834 47.4535 22.7627 50.0067H19.9081C18.5769 50.0067 17.3007 50.5377 16.3624 51.4813C15.4241 52.4257 14.9008 53.705 14.9092 55.0362C14.9275 58.3828 15.2601 61.7202 15.9024 65.005H10.9363L9.42128 61.782C7.78956 58.2897 8.03061 54.2093 10.0628 50.9328ZM5.01204 76.6697C5.01051 76.2211 5.19512 75.7916 5.52162 75.4835C5.82599 75.1722 6.24327 74.999 6.67809 75.0036H19.3436C19.9546 76.1631 20.6481 77.2769 21.4201 78.3365H6.67809C5.7581 78.3365 5.01204 77.5904 5.01204 76.6697Z" fill="black"/>
</g>
<defs>
<clipPath id="clip0_5_68">
<rect width="100" height="100" fill="white"/>
</clipPath>
</defs>
</svg>
