<svg width="100" height="100" viewBox="0 0 100 100" fill="none" xmlns="http://www.w3.org/2000/svg">
<path d="M54.0614 0H40.7347C39.8152 0 39.0694 0.745863 39.0694 1.66601V37.0365L31.0131 9.87188C30.9047 9.50889 30.6769 9.19394 30.3667 8.97712L21.6099 2.88533C21.1927 2.59988 20.6705 2.51617 20.1854 2.65684C19.7003 2.80093 19.3064 3.15774 19.1157 3.62639L15.0961 13.5051C14.9541 13.8558 14.9348 14.2448 15.0433 14.6078L24.5432 46.6435H22.4106C21.4912 46.6435 20.7453 47.3894 20.7453 48.3089V98.2837C20.7453 99.2039 21.4912 99.9498 22.4106 99.9498H72.3855C73.3057 99.9498 74.0515 99.2039 74.0515 98.2837V48.3089C74.0515 47.3894 73.3057 46.6435 72.3855 46.6435H67.6002L78.0395 16.1386L81.1911 17.2166L72.5605 42.4353L75.7175 43.5146L84.8792 16.7198C85.177 15.8498 84.7132 14.9022 83.8424 14.6044C83.8424 14.6044 83.8424 14.6044 83.8417 14.6044L79.1175 12.9932L79.6575 11.4192C80.7739 7.91287 78.8368 4.16503 75.3305 3.04795C71.934 1.96587 68.287 3.74921 67.0554 7.09496L55.7274 40.175V1.66601C55.7274 0.745863 54.9816 0 54.0614 0V0ZM52.3961 3.33134V6.66336H49.0641V9.9947H52.3961V13.3267H45.7327V16.6581H52.3961V19.9894H49.0641V23.3214H52.3961V26.6528H45.7327V29.9848H52.3961V33.3161H49.0641V36.6482H52.3961V39.9795H45.7327V43.3108H52.3961V46.6429H42.4007V3.33134H52.3961ZM38.4443 46.6435H34.9682L25.0977 13.3631L28.2931 12.4155L38.4443 46.6435ZM21.4116 6.81157L25.6123 9.73327L19.4889 11.5509L21.4116 6.81157ZM18.7046 15.2576L21.9111 14.3093L31.4948 46.6435H28.018L18.7046 15.2576ZM70.7202 96.6184H24.0766V49.9749H70.7202V96.6184ZM57.0366 46.6435L59.4135 39.6968L65.7221 41.8527L64.0781 46.6435H57.0366ZM66.7967 38.7005L60.4915 36.5432L68.5828 12.9034L74.8845 15.0593L66.7967 38.7005ZM74.4296 6.10002C76.169 6.69561 77.0974 8.58806 76.5039 10.3282L75.9639 11.9057L69.6607 9.74974L70.2001 8.1743C70.7957 6.4335 72.6888 5.50511 74.4296 6.10002Z" fill="black"/>
</svg>
